<svg xmlns="http://www.w3.org/2000/svg" xmlns:svg="http://www.w3.org/2000/svg" xmlns:xlink="http://www.w3.org/1999/xlink" version="1.0" height="877.6142406463623pt" width="859.5800525665284pt" viewBox="390 232 867.5800525665284 883.6142406463623" ><defs><style type="text/css">
            @font-face {
                font-family: 'noto_regular';
                src: url('https://app.creately.com/diagram/assets/fonts/noto/noto-regular.woff') format('woff'),
                     url('https://app.creately.com/diagram/assets/fonts/noto/noto-regular.woff2') format('woff2');
                font-weight: normal;
                font-style: normal;
            }
        p {
            margin: 0;
        }
        </style></defs><defs><style>
            span{ display: inline-block; }
        </style></defs><g id="27jcza3xvt"><g transform="translate(404.45000000000005 280)"><rect x="0" y="0" width="850.1300525665283" height="832.6142406463623" fill="rgba(227,227,225,1)" stroke="#e3e3e1" stroke-width="1.5" stroke-linecap="round" stroke-linejoin="round"/></g></g><g id="glyfizj2wq"><g transform="translate(450 320)"><path d="M 79.8,0 L 79.8,20 L 99.8,20 L 79.8,0 L 0,0 L 0,70 L 99.8,70 L 99.8,20" fill="rgba(56,128,189,1)" stroke="#ffffff" stroke-width="0.5" stroke-linecap="round" stroke-linejoin="round"/></g><g transform="translate(466.9, 337.5) rotate(0, 33, 17.5)" width="66" height="35"><text text-decoration="none" x="13.5" fill="rgb(255, 255, 255)" font-size="10pt" font-family="Lato"  y="12">User&#160;</text><text text-decoration="none" x="42.5" fill="rgb(255, 255, 255)" font-size="10pt" font-family="Lato"  y="12">is&#160;</text><text text-decoration="none" x="4.5" fill="rgb(255, 255, 255)" font-size="10pt" font-family="Lato"  y="31">registered</text><text text-decoration="none" x="61.5" fill="#4b4b4b" font-size="10pt" font-family="noto_regular"  y="31"></text></g></g><g id="2d3gbwcsgt"><g transform="translate(805 340)"><ellipse cx="15" cy="15" rx="15" ry="15" fill="rgba(209,83,77,1)" stroke="#d1534d" stroke-width="1.5" stroke-linecap="round" stroke-linejoin="round"/></g></g><g id="cz025ro9nm"><g><path d="M 550,355 L 805,355" fill="none" stroke="#898989" stroke-width="1.5" stroke-linecap="round" stroke-linejoin="round" stroke-dasharray="10 7"/></g></g><g id="1l3wi6n349"><g transform="translate(745 450)"><rect x="0" y="0" width="150" height="50" fill="rgba(52,64,87,1)" stroke="#344057" stroke-width="1.5" stroke-linecap="round" stroke-linejoin="round"/></g><g transform="translate(754.5, 457.5) rotate(0, 65.5, 17.5)" width="131" height="35"><text text-decoration="none" x="0.5" fill="rgb(255, 255, 255)" font-size="10pt" font-family="Lato"  y="12">User&#160;</text><text text-decoration="none" x="29.5" fill="rgb(255, 255, 255)" font-size="10pt" font-family="Lato"  y="12">enters&#160;</text><text text-decoration="none" x="68.5" fill="rgb(255, 255, 255)" font-size="10pt" font-family="Lato"  y="12">login&#160;</text><text text-decoration="none" x="98.5" fill="rgb(255, 255, 255)" font-size="10pt" font-family="Lato"  y="12">name&#160;</text><text text-decoration="none" x="25.5" fill="rgb(255, 255, 255)" font-size="10pt" font-family="Lato"  y="31">and&#160;</text><text text-decoration="none" x="49.5" fill="rgb(255, 255, 255)" font-size="10pt" font-family="Lato"  y="31">password</text><text text-decoration="none" x="105.5" fill="#4b4b4b" font-size="10pt" font-family="noto_regular"  y="31"></text></g></g><g id="4ua72weg42"><g><path d="M 820,370 L 820,450" fill="none" stroke="#898989" stroke-width="2" stroke-linecap="round" stroke-linejoin="round"/><path d="M 820,450 L 826.4971751412429,443.04347826086956 M 820,450 L 813.5028248587571,443.04347826086956 Z" fill="rgb(255,255,255)" stroke="#898989" stroke-width="2" stroke-linecap="round" stroke-linejoin="round"/></g></g><g id="2n7rbg4pgn"><g transform="translate(730 565)"><path d="M 89.99999761581421,0 L 0,45.00000178813934 L 89.99999761581421,90.00000357627869 L 179.99999523162842,45.00000178813934 L 89.99999761581421,0 Z" fill="rgba(209,83,77,1)" stroke="#d1534d" stroke-width="1.5" stroke-linecap="round" stroke-linejoin="round"/></g><g transform="translate(764.4999976158142, 592.5000017881393) rotate(0, 55.5, 17.5)" width="111" height="35"><text text-decoration="none" x="8" fill="rgb(255, 255, 255)" font-size="10pt" font-family="Lato"  y="12">Correct&#160;</text><text text-decoration="none" x="52" fill="rgb(255, 255, 255)" font-size="10pt" font-family="Lato"  y="12">login&#160;</text><text text-decoration="none" x="82" fill="rgb(255, 255, 255)" font-size="10pt" font-family="Lato"  y="12">and&#160;</text><text text-decoration="none" x="23" fill="rgb(255, 255, 255)" font-size="10pt" font-family="Lato"  y="31">password?&#160;</text><text text-decoration="none" x="88" fill="#4b4b4b" font-size="10pt" font-family="noto_regular"  y="31"></text></g></g><g id="8kxybx0snu"><g><path d="M 820,500 L 820,565" fill="none" stroke="#898989" stroke-width="2" stroke-linecap="round" stroke-linejoin="round"/><path d="M 820,565 L 826.4971751412429,558.0434782608696 M 820,565 L 813.5028248587571,558.0434782608696 Z" fill="rgb(255,255,255)" stroke="#898989" stroke-width="2" stroke-linecap="round" stroke-linejoin="round"/></g></g><g id="21kc233tr2"><g transform="translate(745 730)"><rect x="0" y="0" width="150" height="50" fill="rgba(52,64,87,1)" stroke="#344057" stroke-width="1.5" stroke-linecap="round" stroke-linejoin="round"/></g><g transform="translate(747.5, 737.5) rotate(0, 72.5, 17.5)" width="145" height="35"><text text-decoration="none" x="1.5" fill="rgb(255, 255, 255)" font-size="10pt" font-family="Lato"  y="15">User&#160;</text><text text-decoration="none" x="30.5" fill="rgb(255, 255, 255)" font-size="10pt" font-family="Lato"  y="15">successfully&#160;</text><text text-decoration="none" x="106.5" fill="rgb(255, 255, 255)" font-size="10pt" font-family="Lato"  y="15">logs&#160;</text><text text-decoration="none" x="133.5" fill="rgb(255, 255, 255)" font-size="10pt" font-family="Lato"  y="15">in</text><text text-decoration="none" x="143.5" fill="#4b4b4b" font-size="10pt" font-family="noto_regular"  y="15"></text></g></g><g id="ciwocha4gj"><mask id="a0394" x="806" y="641" width="28" height="103" maskUnits="userSpaceOnUse"><rect x="806" y="641" width="28" height="103" fill="white" /><rect x="806.5" y="680" width="27" height="25" fill="black" /></mask><g mask="url(#a0394)"><path d="M 820,655 L 820,730" fill="none" stroke="#898989" stroke-width="2" stroke-linecap="round" stroke-linejoin="round"/><path d="M 820,730 L 826.4971751412429,723.0434782608696 M 820,730 L 813.5028248587571,723.0434782608696 Z" fill="rgb(255,255,255)" stroke="#898989" stroke-width="2" stroke-linecap="round" stroke-linejoin="round"/></g><g transform="translate(809.5, 683)" width="21" height="19"><text text-decoration="none" x="0" fill="rgb(75, 75, 75)" font-size="10pt" font-family="Lato"  y="15">Yes</text><text text-decoration="none" x="22" fill="#4b4b4b" font-size="10pt" font-family="noto_regular"  y="15"></text></g></g><g id="2hbhwerkzm"><g transform="translate(745 870)"><rect x="0" y="0" width="150" height="50" fill="rgba(52,64,87,1)" stroke="#344057" stroke-width="1.5" stroke-linecap="round" stroke-linejoin="round"/></g><g transform="translate(759, 877.5) rotate(0, 61, 17.5)" width="122" height="35"><text text-decoration="none" x="8.5" fill="rgb(255, 255, 255)" font-size="10pt" font-family="Lato"  y="12">User&#x27;s&#160;</text><text text-decoration="none" x="46.5" fill="rgb(255, 255, 255)" font-size="10pt" font-family="Lato"  y="12">settings&#160;</text><text text-decoration="none" x="95.5" fill="rgb(255, 255, 255)" font-size="10pt" font-family="Lato"  y="12">are&#160;</text><text text-decoration="none" x="34" fill="rgb(255, 255, 255)" font-size="10pt" font-family="Lato"  y="31">displayed</text><text text-decoration="none" x="88" fill="#4b4b4b" font-size="10pt" font-family="noto_regular"  y="31"></text></g></g><g id="4c007ovwcz"><g><path d="M 820,780 L 820,870" fill="none" stroke="#898989" stroke-width="2" stroke-linecap="round" stroke-linejoin="round"/><path d="M 820,870 L 826.4971751412429,863.0434782608696 M 820,870 L 813.5028248587571,863.0434782608696 Z" fill="rgb(255,255,255)" stroke="#898989" stroke-width="2" stroke-linecap="round" stroke-linejoin="round"/></g></g><g id="2808hllc51"><g transform="translate(805 1010.0000000000001)"><path d="L 28.7,14.4 A 14.35 14.35 0 1 0 28.6999928250006 14.414349997608339 M 26.5475,14.4 L 26.5475,14.4 A 12.1975 12.1975 0 1 1 26.54749390125051 14.38780250203291" fill="rgba(209,83,77,1)" stroke="#d1534d" stroke-width="1.5" stroke-linecap="round" stroke-linejoin="round"/><ellipse cx="14.35" cy="14.4" rx="7.175" ry="7.2250000000000005" fill="rgba(209,83,77,1)" stroke="#d1534d" stroke-width="1.5" stroke-linecap="round" stroke-linejoin="round"/><path d="M 26.5475,14.4 L 26.5475,14.4 A 12.1975 12.1975 0 1 0 26.54749390125051 14.412197497967087 M 21.525,14.4 L 21.525,14.4 A 7.175 7.175 0 1 1 21.5249964125003 14.39282500119583" fill="rgba(255,255,255,0.01)" stroke="rgba(255,255,255,0.01)" stroke-width="1.5" stroke-linecap="round" stroke-linejoin="round"/></g></g><g id="15hgno8jxe"><g><path d="M 820,920 L 820,1010" fill="none" stroke="#898989" stroke-width="2" stroke-linecap="round" stroke-linejoin="round"/><path d="M 820,1010 L 826.4971751412429,1003.0434782608696 M 820,1010 L 813.5028248587571,1003.0434782608696 Z" fill="rgb(255,255,255)" stroke="#898989" stroke-width="2" stroke-linecap="round" stroke-linejoin="round"/></g></g><g id="cd2q08ahld"><g transform="translate(1000.0000000000001 990)"><path d="M 79.8,0 L 79.8,20 L 99.8,20 L 79.8,0 L 0,0 L 0,70 L 99.8,70 L 99.8,20" fill="rgba(56,128,189,1)" stroke="#ffffff" stroke-width="0.5" stroke-linecap="round" stroke-linejoin="round"/></g><g transform="translate(1004.9000000000001, 1007.5) rotate(0, 45, 17.5)" width="90" height="35"><text text-decoration="none" x="6.5" fill="rgb(255, 255, 255)" font-size="10pt" font-family="Lato"  y="12">User&#160;</text><text text-decoration="none" x="35.5" fill="rgb(255, 255, 255)" font-size="10pt" font-family="Lato"  y="12">logs&#160;</text><text text-decoration="none" x="62.5" fill="rgb(255, 255, 255)" font-size="10pt" font-family="Lato"  y="12">into&#160;</text><text text-decoration="none" x="13.5" fill="rgb(255, 255, 255)" font-size="10pt" font-family="Lato"  y="31">the&#160;</text><text text-decoration="none" x="34.5" fill="rgb(255, 255, 255)" font-size="10pt" font-family="Lato"  y="31">system</text><text text-decoration="none" x="76.5" fill="#4b4b4b" font-size="10pt" font-family="noto_regular"  y="31"></text></g></g><g id="2bvkbyzys9"><g transform="translate(1060 585)"><rect x="0" y="0" width="150" height="50" fill="rgba(52,64,87,1)" stroke="#344057" stroke-width="1.5" stroke-linecap="round" stroke-linejoin="round"/></g><g transform="translate(1062, 600.5) rotate(0, 73, 9.5)" width="146" height="19"><text text-decoration="none" x="9" fill="rgb(255, 255, 255)" font-size="10pt" font-family="Lato"  y="15">Invalid&#160;</text><text text-decoration="none" x="49" fill="rgb(255, 255, 255)" font-size="10pt" font-family="Lato"  y="15">login/password</text><text text-decoration="none" x="137" fill="#4b4b4b" font-size="10pt" font-family="noto_regular"  y="15"></text></g></g><g id="18g2nim530"><mask id="18051" x="896" y="596" width="178" height="28" maskUnits="userSpaceOnUse"><rect x="896" y="596" width="178" height="28" fill="white" /><rect x="973" y="597.5" width="24" height="25" fill="black" /></mask><g mask="url(#18051)"><path d="M 910,610 L 1060,610" fill="none" stroke="#898989" stroke-width="2" stroke-linecap="round" stroke-linejoin="round"/><path d="M 1060,610 L 1053.0434782608695,603.5028248587571 M 1060,610 L 1053.0434782608695,616.4971751412429 Z" fill="rgb(255,255,255)" stroke="#898989" stroke-width="2" stroke-linecap="round" stroke-linejoin="round"/></g><g transform="translate(976, 600.5)" width="18" height="19"><text text-decoration="none" x="1" fill="rgb(75, 75, 75)" font-size="10pt" font-family="Lato"  y="15">No</text><text text-decoration="none" x="17" fill="#4b4b4b" font-size="10pt" font-family="noto_regular"  y="15"></text></g></g><g id="31wyb21jq8"><g><path d="M 1135,585 L 1135,475 L 895,475" fill="none" stroke="#898989" stroke-width="2" stroke-linecap="round" stroke-linejoin="round"/><path d="M 895,475 L 901.9565217391304,481.49717514124296 M 895,475 L 901.9565217391304,468.50282485875704 Z" fill="rgb(255,255,255)" stroke="#898989" stroke-width="2" stroke-linecap="round" stroke-linejoin="round"/></g></g><g id="pdrfbu8mlz"><g><path d="M 835,1025 L 1000,1025" fill="none" stroke="#898989" stroke-width="1.5" stroke-linecap="round" stroke-linejoin="round"/><path d="M 1000,1025 L 993.0434782608696,1018.5028248587571 M 1000,1025 L 993.0434782608696,1031.497175141243 Z" fill="rgb(255,255,255)" stroke="#898989" stroke-width="1.5" stroke-linecap="round" stroke-linejoin="round"/></g></g><g id="1jr0768h2q"><g transform="translate(395 235)"><rect x="0" y="0" width="520.0000047683716" height="45.99467086791992" fill="rgba(255,255,255,0.01)" stroke="rgba(255,255,255,0.01)" stroke-width="NaN" stroke-linecap="round" stroke-linejoin="round"/></g><g transform="translate(420.5000023841858, 242.99733543395996) rotate(0, 234.5, 15)" width="469" height="30"><text text-decoration="none" x="43" fill="rgb(38, 38, 38)" font-weight="bold" font-size="19pt" font-family="Lato"  y="23">USER&#160;</text><text text-decoration="none" x="110" fill="rgb(38, 38, 38)" font-weight="bold" font-size="19pt" font-family="Lato"  y="23">LOGIN&#160;</text><text text-decoration="none" x="189" fill="rgb(38, 38, 38)" font-weight="bold" font-size="19pt" font-family="Lato"  y="23">SYSTEM&#160;</text><text text-decoration="none" x="291" fill="rgb(38, 38, 38)" font-weight="bold" font-size="19pt" font-family="Lato"  y="23">for&#160;</text><text text-decoration="none" x="329" fill="rgb(38, 38, 38)" font-weight="bold" font-size="19pt" font-family="Lato"  y="23">XYZ&#160;</text><text text-decoration="none" x="381" fill="rgb(38, 38, 38)" font-weight="bold" font-size="19pt" font-family="Lato"  y="23">App</text><text text-decoration="none" x="426" fill="#4b4b4b" font-size="10pt" font-family="noto_regular"  y="23"></text></g></g></svg>